{"title":"UFC.128.Shogun.vs.Jones.PPV.720p.HDTV.x264-XS","uid":6257196,"size":5581347119,"categoryP":"video","categoryS":"hd___tv_shows","magnet":"?xt=urn:btih:8b69c9bb2dc8a61399c5975428a5ac4adde514e5&amp;dn=UFC.128.Shogun.vs.Jones.PPV.720p.HDTV.x264-XS&amp;tr=udp%3A%2F%2Ftracker.openbittorrent.com%3A80&amp;tr=udp%3A%2F%2Fopen.demonii.com%3A1337&amp;tr=udp%3A%2F%2Ftracker.coppersurfer.tk%3A6969&amp;tr=udp%3A%2F%2Fexodus.desync.com%3A6969","seeders":1,"leechers":1,"uploader":"SAFCukO09","files":2,"time":1300579428,"description":"UFC.128.Shogun.vs.Jones.PPV.720p.HDTV.x264-XS\n\nGeneral Information\nFormat : Matroska\nFile size : 5.20 GiB\nDuration : 2h 56mn\nOverall bit rate : 4 206 Kbps\nWriting application : Lavf51.12.1\nWriting library : Lavf51.12.1\nVideo\nID : 1\nFormat : AVC\nFormat/Info : Advanced Video Codec\nFormat profile : &lt;a class=&quot;__cf_email__&quot; href=&quot;/cdn-cgi/l/email-protection&quot; data-cfemail=&quot;d391b2a0b6bfbabdb6939fe2fde0&quot;&gt;[email&amp;#160;protected]&lt;/a&gt;&lt;script cf-hash='f9e31' type=&quot;text/javascript&quot;&gt;\n/* &lt;![CDATA[ */!function(){try{var t=&quot;currentScript&quot;in document?document.currentScript:function(){for(var t=document.getElementsByTagName(&quot;script&quot;),e=t.length;e--;)if(t[e].getAttribute(&quot;cf-hash&quot;))return t[e]}();if(t&amp;&amp;t.previousSibling){var e,r,n,i,c=t.previousSibling,a=c.getAttribute(&quot;data-cfemail&quot;);if(a){for(e=&quot;&quot;,r=parseInt(a.substr(0,2),16),n=2;a.length-n;n+=2)i=parseInt(a.substr(n,2),16)^r,e+=String.fromCharCode(i);e=document.createTextNode(e),c.parentNode.replaceChild(e,c)}}}catch(u){}}();/* ]]&gt; */&lt;/script&gt;\nFormat settings, CABAC : No\nFormat settings, ReFrames : 1 frame\nMuxing mode : Container profile=&lt;a class=&quot;__cf_email__&quot; href=&quot;/cdn-cgi/l/email-protection&quot; data-cfemail=&quot;abfec5c0c5c4dcc5eb9a8598&quot;&gt;[email&amp;#160;protected]&lt;/a&gt;&lt;script cf-hash='f9e31' type=&quot;text/javascript&quot;&gt;\n/* &lt;![CDATA[ */!function(){try{var t=&quot;currentScript&quot;in document?document.currentScript:function(){for(var t=document.getElementsByTagName(&quot;script&quot;),e=t.length;e--;)if(t[e].getAttribute(&quot;cf-hash&quot;))return t[e]}();if(t&amp;&amp;t.previousSibling){var e,r,n,i,c=t.previousSibling,a=c.getAttribute(&quot;data-cfemail&quot;);if(a){for(e=&quot;&quot;,r=parseInt(a.substr(0,2),16),n=2;a.length-n;n+=2)i=parseInt(a.substr(n,2),16)^r,e+=String.fromCharCode(i);e=document.createTextNode(e),c.parentNode.replaceChild(e,c)}}}catch(u){}}();/* ]]&gt; */&lt;/script&gt;\nCodec ID : V_MPEG4/ISO/AVC\nDuration : 2h 56mn\nBit rate : 3 930 Kbps\nWidth : 1 280 pixels\nHeight : 720 pixels\nDisplay aspect ratio : 16:9\nFrame rate : 29.970 fps\nColor space : YUV\nChroma subsampling : 4:2:0\nBit depth : 8 bits\nScan type : Progressive\nBits/(Pixel*Frame) : 0.142\nStream size : 4.86 GiB (93%)\nLanguage : English\nAudio\nID : 2\nFormat : AC-3\nFormat/Info : Audio Coding 3\nMode extension : CM (complete main)\nCodec ID : A_AC3\nDuration : 2h 56mn\nBit rate mode : Constant\nBit rate : 192 Kbps\nChannel(s) : 2 channels\nChannel positions : Front: L R\nSampling rate : 48.0 KHz\nBit depth : 16 bits\nStream size : 243 MiB (5%)\nLanguage : English\n\n\nFight Card\nHeavyweight bout: Brendan Schaub vs. Mirko Cro Cop\nMiddleweight bout: Nate Marquardt vs. Dan Miller\nLightweight bout: Jim Miller vs. Kamal Shalorus\nBantamweight bout: Urijah Faber vs. Eddie Wineland\nLight Heavyweight Championship bout: MaurÃƒÆ’Ã‚Â­cio &quot;Shogun&quot; Rua vs. Jon Jones\nFeatherweight bout: Raphael AssunÃƒÂ§ÃƒÂ£o vs. Erik Koch","torrent":{"xt":"urn:btih:8b69c9bb2dc8a61399c5975428a5ac4adde514e5","amp;dn":"UFC.128.Shogun.vs.Jones.PPV.720p.HDTV.x264-XS","amp;tr":["udp%3A%2F%2Ftracker.openbittorrent.com%3A80","udp%3A%2F%2Fopen.demonii.com%3A1337","udp%3A%2F%2Ftracker.coppersurfer.tk%3A6969","udp%3A%2F%2Fexodus.desync.com%3A6969"],"infoHash":"8b69c9bb2dc8a61399c5975428a5ac4adde514e5","infoHashBuffer":{"type":"Buffer","data":[139,105,201,187,45,200,166,19,153,197,151,84,40,165,172,74,221,229,20,229]},"announce":[],"urlList":[]}}